<?xml version="1.0" encoding="UTF-8" standalone="no"?>
<!-- Created with Inkscape (http://www.inkscape.org/) -->

<svg xmlns:dc="http://purl.org/dc/elements/1.1/" xmlns:cc="http://creativecommons.org/ns#" xmlns:rdf="http://www.w3.org/1999/02/22-rdf-syntax-ns#" xmlns:svg="http://www.w3.org/2000/svg" xmlns="http://www.w3.org/2000/svg" xmlns:sodipodi="http://sodipodi.sourceforge.net/DTD/sodipodi-0.dtd" xmlns:inkscape="http://www.inkscape.org/namespaces/inkscape" width="210mm" height="297mm" id="svg3020" version="1.1" inkscape:version="0.48.4 r9939" sodipodi:docname="gate_out.svg" inkscape:export-filename="/home/dwayne/dart/vdrones/web/_images/gate_out.png" inkscape:export-xdpi="137" inkscape:export-ydpi="137">
  <defs id="defs3022" />
  <sodipodi:namedview id="base" pagecolor="#ffffff" bordercolor="#666666" borderopacity="1.0" inkscape:pageopacity="0.0" inkscape:pageshadow="2" inkscape:zoom="0.35" inkscape:cx="-202.14286" inkscape:cy="520" inkscape:document-units="px" inkscape:current-layer="layer1" showgrid="false" inkscape:window-width="1357" inkscape:window-height="580" inkscape:window-x="109" inkscape:window-y="300" inkscape:window-maximized="0" />
  <metadata id="metadata3025">
    <rdf:RDF>
      <cc:Work rdf:about="">
        <dc:format>image/svg+xml</dc:format>
        <dc:type rdf:resource="http://purl.org/dc/dcmitype/StillImage" />
        <dc:title></dc:title>
      </cc:Work>
    </rdf:RDF>
  </metadata>
  <g inkscape:label="Calque 1" inkscape:groupmode="layer" id="layer1">
    <path sodipodi:type="arc" style="fill:#505a63;fill-opacity:1;fill-rule:nonzero;stroke:#3a4048;stroke-width:0.69999999;stroke-linecap:round;stroke-linejoin:round;stroke-miterlimit:4;stroke-opacity:1;stroke-dasharray:none;stroke-dashoffset:0" id="path3028" sodipodi:cx="361.42856" sodipodi:cy="545.2193" sodipodi:rx="92.85714" sodipodi:ry="84.285713" d="m 454.2857,545.2193 a 92.85714,84.285713 0 1 1 -185.71428,0 92.85714,84.285713 0 1 1 185.71428,0 z" />
    <path style="fill:#000000;stroke:#000000;stroke-width:1px;stroke-linecap:butt;stroke-linejoin:miter;stroke-opacity:1;fill-opacity:1" d="m 328.57143,446.6479 c 20.95238,0 41.90476,0 62.85714,0 0.69293,0 8.47954,0.0919 8.57143,0 0.67344,-0.67344 -0.67344,-2.18371 0,-2.85715 0.67344,-0.67343 2.85714,-0.95238 2.85714,0 0,0.95238 -2.1837,0.67344 -2.85714,0 -0.67344,-0.67343 0.67344,-2.1837 0,-2.85714 -0.67344,-0.67343 -2.00531,0.42592 -2.85714,0 -2.40936,-1.20468 -3.30493,-4.50961 -5.71429,-5.71428 -0.85183,-0.42592 -2.18371,0.67343 -2.85714,0 -0.67344,-0.67344 0.67343,-2.18371 0,-2.85715 -1.34687,-1.34687 -4.36742,1.34687 -5.71429,0 -0.67343,-0.67343 0.67344,-2.18371 0,-2.85714 -0.67343,-0.67344 -2.1837,0.67343 -2.85714,0 -0.67344,-0.67344 0.42592,-2.00531 0,-2.85714 -1.40576,-2.81151 -10.02282,-8.61706 -11.42857,-11.42857 -0.42592,-0.85184 0.67343,-2.18371 0,-2.85715 -0.67344,-0.67343 -2.18371,0.67344 -2.85714,0 -0.67344,-0.67343 0.42591,-2.0053 0,-2.85714 -1.20468,-2.40935 -4.50961,-3.30493 -5.71429,-5.71429 -0.42592,-0.85183 0.67344,-2.1837 0,-2.85714 -0.67344,-0.67343 -2.18371,0.67344 -2.85714,0 -0.67344,-0.67343 0.67343,-2.18371 0,-2.85714 -0.67344,-0.67344 -2.18371,0.67343 -2.85715,0 -0.67343,-0.67344 0.42592,-2.00531 0,-2.85714 -0.60233,-1.20468 -2.2548,-1.65247 -2.85714,-2.85715 -0.42592,-0.85183 0.67344,-2.18371 0,-2.85714 -0.67343,-0.67344 -2.18371,0.67343 -2.85714,0 -0.67344,-0.67344 0.42592,-2.00531 0,-2.85714 -0.60234,-1.20468 -2.25481,-1.65247 -2.85714,-2.85715 -0.42592,-0.85183 0.67343,-2.1837 0,-2.85714 -0.67344,-0.67343 -2.18371,-0.67343 -2.85715,0 -0.68751,0.68752 0.68752,10.74106 0,11.42857 -0.67343,0.67344 -2.1837,-0.67343 -2.85714,0 -1.00291,1.00292 0.98676,12.31219 0,14.28572 -0.60234,1.20467 -2.2548,1.65246 -2.85714,2.85714 -0.85184,1.70367 1.34687,4.36742 0,5.71429 -0.67344,0.67343 -2.18371,-0.67344 -2.85715,0 -1.34687,1.34687 0.85184,4.01061 0,5.71428 -0.60233,1.20468 -2.2548,1.65247 -2.85714,2.85714 -0.85183,1.70367 0.85184,4.01062 0,5.71429 -0.60234,1.20468 -2.2548,1.65247 -2.85714,2.85714 -0.42592,0.85184 0,1.90476 0,2.85715 0,3.80952 0,7.61904 0,11.42857 z" id="path3034" inkscape:connector-curvature="0" />
    <path style="fill:#000000;stroke:#000000;stroke-width:1px;stroke-linecap:butt;stroke-linejoin:miter;stroke-opacity:1;fill-opacity:1" d="m 468.57143,526.6479 c 0,7.61904 0,15.23809 0,22.85714 0,0.95238 -0.67344,2.18371 0,2.85714 0.67343,0.67344 2.18371,-0.67343 2.85714,0 0.67344,0.67344 0,1.90476 0,2.85715 0,0.95238 0,1.90476 0,2.85714 0,8.57143 0,17.14286 0,25.71428 0,1.34714 -0.12949,14.15623 0,14.28572 0.67344,0.67343 1.90476,0 2.85714,0 0.95239,0 2.00531,0.42592 2.85715,0 1.20467,-0.60234 1.65246,-2.25481 2.85714,-2.85714 0.85184,-0.42592 2.18371,0.67343 2.85714,0 0.67344,-0.67344 -0.67343,-2.18371 0,-2.85715 0.67344,-0.67343 2.18371,0.67344 2.85715,0 0.67343,-0.67343 -0.67344,-2.18371 0,-2.85714 0.67343,-0.67344 2.1837,0.67343 2.85714,0 0.67343,-0.67344 -0.67344,-2.18371 0,-2.85714 0.67343,-0.67344 2.00531,0.42591 2.85714,0 0.7586,-0.3793 8.19213,-7.81283 8.57143,-8.57143 0.42592,-0.85184 -0.67344,-2.18371 0,-2.85714 0.67344,-0.67344 2.18371,0.67343 2.85714,0 0.67344,-0.67344 -0.67343,-2.18371 0,-2.85715 0.67344,-0.67343 2.18371,0.67344 2.85715,0 0.67343,-0.67343 -0.42592,-2.0053 0,-2.85714 0.60233,-1.20468 2.2548,-1.65247 2.85714,-2.85714 0.42592,-0.85184 -0.67344,-2.18371 0,-2.85715 0.67343,-0.67343 2.18371,0.67344 2.85714,0 0.67344,-0.67343 -0.67343,-2.1837 0,-2.85714 0.67344,-0.67343 2.18371,0.67344 2.85714,0 0.67344,-0.67343 -0.67343,-2.18371 0,-2.85714 0.67344,-0.67344 1.90477,0 2.85715,0 0,-0.95238 -0.42592,-2.00531 0,-2.85714 0.79376,-1.58753 5.71428,-4.79303 5.71428,-5.71429 0,-0.95238 -2.1837,0.67343 -2.85714,0 -0.67344,-0.67344 0.67344,-2.18371 0,-2.85714 -1.34687,-1.34687 -4.36742,1.34687 -5.71429,0 -0.67343,-0.67344 0.67344,-2.18371 0,-2.85715 -0.67343,-0.67343 -2.0053,0.42592 -2.85714,0 -2.40935,-1.20467 -3.30493,-4.5096 -5.71428,-5.71428 -0.85184,-0.42592 -2.18371,0.67343 -2.85715,0 -0.67343,-0.67344 0.67344,-2.18371 0,-2.85714 -0.67343,-0.67344 -2.1837,0.67343 -2.85714,0 -0.67344,-0.67344 0.67344,-2.18371 0,-2.85715 -0.67344,-0.67343 -2.00531,0.42592 -2.85714,0 -1.20468,-0.60234 -1.65247,-2.2548 -2.85715,-2.85714 -0.85183,-0.42592 -2.0053,0.42592 -2.85714,0 -9.47595,-9.47595 2.69374,1.34687 -5.71428,-2.85714 -1.20468,-0.60234 -1.51028,-2.85715 -2.85715,-2.85715 -4.85621,0 -10.40074,5.77087 -14.28571,2.85715 -3.14142,-2.35606 2.85714,-7.50181 2.85714,-11.42857 0,-1.90477 -5.71428,1.90476 -5.71428,0 0,-0.95239 2.62615,-0.92395 2.85714,0 0.92394,3.69578 0,7.61904 0,11.42857 z" id="path3036" inkscape:connector-curvature="0" />
    <path style="fill:#000000;stroke:#000000;stroke-width:1px;stroke-linecap:butt;stroke-linejoin:miter;stroke-opacity:1;fill-opacity:1" d="m 342.85714,646.6479 c 9.52381,0 19.04762,0 28.57143,0 5.71429,0 11.42857,0 17.14286,0 1.28673,0 7.7019,-0.43477 8.57143,0 1.20467,0.60234 1.65246,2.2548 2.85714,2.85714 0.85184,0.42592 2.85714,-0.95238 2.85714,0 0,0.95238 -3.80952,0 -2.85714,0 1.90476,0 3.80952,0 5.71429,0 0.95238,0 2.1837,-0.67344 2.85714,0 0.67343,0.67343 0.67343,2.18371 0,2.85714 -0.67344,0.67344 -2.18371,-0.67343 -2.85714,0 -1.34687,1.34687 1.34687,4.36742 0,5.71429 -0.67344,0.67343 -1.90477,0 -2.85715,0 0,0.95238 0.42592,2.00531 0,2.85714 -0.60234,1.20468 -2.2548,1.65247 -2.85714,2.85714 -0.85184,1.70367 0.85184,4.01062 0,5.71429 -0.60234,1.20468 -2.2548,1.65247 -2.85714,2.85714 -0.85184,1.70367 1.34687,4.36742 0,5.71429 -0.67344,0.67343 -2.18371,-0.67344 -2.85715,0 -1.34687,1.34687 1.34687,4.36741 0,5.71428 -0.67343,0.67344 -2.1837,-0.67343 -2.85714,0 -1.34687,1.34687 1.34687,4.36742 0,5.71429 -0.67343,0.67343 -2.18371,-0.67344 -2.85714,0 -0.67344,0.67343 0.67343,2.18371 0,2.85714 -0.67344,0.67344 -2.18371,-0.67343 -2.85714,0 -0.67344,0.67344 0.42591,2.00531 0,2.85715 -0.60234,1.20467 -2.25481,1.65246 -2.85715,2.85714 -0.42591,0.85183 0.67344,2.18371 0,2.85714 -0.67343,0.67344 -2.1837,-0.67343 -2.85714,0 -1.34687,1.34687 1.34687,4.36742 0,5.71429 -0.67344,0.67343 -2.18371,-0.67344 -2.85714,0 -1.34687,1.34687 0.85183,4.01061 0,5.71428 -0.60234,1.20468 -2.25481,1.65247 -2.85715,2.85715 -0.42591,0.85183 0.67344,2.1837 0,2.85714 -0.67343,0.67343 -2.1837,-0.67344 -2.85714,0 -0.67343,0.67343 0.67344,2.18371 0,2.85714 -0.67343,0.67344 -1.90476,0 -2.85714,0 -0.95238,0 -1.90476,0 -2.85714,0 -0.95239,0 -2.18371,0.67344 -2.85715,0 -0.67343,-0.67343 0.42592,-2.00531 0,-2.85714 -1.20467,-2.40936 -4.50961,-3.30493 -5.71428,-5.71429 -0.42592,-0.85183 0.67343,-2.18371 0,-2.85714 -0.67344,-0.67344 -2.18371,0.67343 -2.85715,0 -0.67343,-0.67344 0,-1.90476 0,-2.85714 0,-2.02515 0.36936,-16.40414 0,-17.14286 -0.60233,-1.20468 -2.2548,-1.65247 -2.85714,-2.85714 -0.42592,-0.85184 0,-1.90477 0,-2.85715 0,-0.95238 0,-1.90476 0,-2.85714 0,-4.7619 0,-9.52381 0,-14.28571 0,-0.95238 0,-1.90477 0,-2.85715 0,-0.95238 0.42592,-2.0053 0,-2.85714 -2.4835,-4.96701 -5.71428,-9.52381 -8.57143,-14.28571 z" id="path3038" inkscape:connector-curvature="0" />
    <path style="fill:#000000;stroke:#000000;stroke-width:1px;stroke-linecap:butt;stroke-linejoin:miter;stroke-opacity:1;fill-opacity:1" d="m 248.57143,518.07647 c 0,8.57143 0,17.14286 0,25.71428 0,8.57143 0,17.14286 0,25.71429 0,1.49406 0.37563,10.67731 0,11.42857 -0.60234,1.20468 -2.25481,1.65247 -2.85714,2.85714 -0.51662,1.03324 0,12.29846 0,14.28572 0,0.95238 0.67343,2.18371 0,2.85714 -0.67344,0.67344 -2.18371,0.67344 -2.85715,0 -0.67343,-0.67343 0.42592,-2.00531 0,-2.85714 -0.60234,-1.20468 -1.90476,-1.90476 -2.85714,-2.85714 -9.47595,-9.47595 1.34687,2.69374 -2.85714,-5.71429 -0.60234,-1.20468 -2.25481,-1.65247 -2.85715,-2.85714 -0.42591,-0.85184 0.67344,-2.18371 0,-2.85715 -0.67343,-0.67343 -2.1837,0.67344 -2.85714,0 -1.90099,-1.90099 1.90099,-3.81329 0,-5.71428 -0.67343,-0.67344 -2.18371,0.67343 -2.85714,0 -0.67344,-0.67344 0.42592,-2.00531 0,-2.85714 -0.60234,-1.20468 -1.90476,-1.90477 -2.85714,-2.85715 -0.95239,-0.95238 -2.25481,-1.65246 -2.85715,-2.85714 -0.42591,-0.85184 0.67344,-2.18371 0,-2.85714 -0.67343,-0.67344 -2.1837,0.67343 -2.85714,0 -0.67344,-0.67344 0.67344,-2.18371 0,-2.85715 -7.61905,0 0.95238,0.95238 -2.85714,-2.85714 -0.67344,-0.67343 -2.18371,0.67344 -2.85715,0 -0.67343,-0.67343 0.42592,-2.00531 0,-2.85714 -0.60233,-1.20468 -2.2548,-1.65247 -2.85714,-2.85714 -0.42592,-0.85184 0.67344,-2.18371 0,-2.85715 -0.67343,-0.67343 -2.18371,0.67344 -2.85714,0 -0.67344,-0.67343 0.67343,-2.18371 0,-2.85714 -0.67344,-0.67344 -2.18371,0.67343 -2.85714,0 -0.67344,-0.67344 0.67343,-2.18371 0,-2.85714 -0.67344,-0.67344 -2.18371,0.67343 -2.85715,0 0,-4.20402 0.67344,-2.18371 -2.85714,-5.71429 -0.95238,-0.95238 -3.80952,-1.90476 -2.85714,-2.85714 0.95238,-0.95238 1.51027,2.85714 2.85714,2.85714 0.95238,0 -0.42592,-2.00531 0,-2.85714 0.60234,-1.20468 1.65247,-2.25481 2.85714,-2.85714 1.70367,-0.85184 4.36742,1.34687 5.71429,0 0.67343,-0.67344 -0.67344,-2.18371 0,-2.85715 1.34687,-1.34687 3.90727,0.60234 5.71428,0 2.02031,-0.67343 3.69398,-2.18371 5.71429,-2.85714 2.08969,-0.69656 9.96627,0.8356 11.42857,0 5.96285,-3.40734 11.42857,-7.61905 17.14286,-11.42857 z" id="path3042" inkscape:connector-curvature="0" />
  </g>
</svg>
