<?xml version="1.0" encoding="UTF-8" standalone="no"?>
<!-- Created with Inkscape (http://www.inkscape.org/) -->

<svg xmlns:dc="http://purl.org/dc/elements/1.1/" xmlns:cc="http://creativecommons.org/ns#" xmlns:rdf="http://www.w3.org/1999/02/22-rdf-syntax-ns#" xmlns:svg="http://www.w3.org/2000/svg" xmlns="http://www.w3.org/2000/svg" xmlns:sodipodi="http://sodipodi.sourceforge.net/DTD/sodipodi-0.dtd" xmlns:inkscape="http://www.inkscape.org/namespaces/inkscape" width="210mm" height="297mm" id="svg2" version="1.1" inkscape:version="0.48.4 r9939" sodipodi:docname="gate_out.svg" inkscape:export-filename="/home/dwayne/dart/vdrones/web/_images/gate_out.png" inkscape:export-xdpi="137" inkscape:export-ydpi="137">
  <defs id="defs4" />
  <sodipodi:namedview id="base" pagecolor="#ffffff" bordercolor="#666666" borderopacity="1.0" inkscape:pageopacity="0.0" inkscape:pageshadow="2" inkscape:zoom="0.35" inkscape:cx="375" inkscape:cy="520" inkscape:document-units="px" inkscape:current-layer="layer1" showgrid="false" inkscape:window-width="1057" inkscape:window-height="728" inkscape:window-x="401" inkscape:window-y="132" inkscape:window-maximized="0" />
  <metadata id="metadata7">
    <rdf:RDF>
      <cc:Work rdf:about="">
        <dc:format>image/svg+xml</dc:format>
        <dc:type rdf:resource="http://purl.org/dc/dcmitype/StillImage" />
        <dc:title></dc:title>
      </cc:Work>
    </rdf:RDF>
  </metadata>
  <g inkscape:label="Calque 1" inkscape:groupmode="layer" id="layer1">
    <path style="fill:none;stroke:#000000;stroke-width:1px;stroke-linecap:butt;stroke-linejoin:miter;stroke-opacity:1" d="m 362.85714,340.93361 c -3.80952,-0.95238 -7.57806,-2.08704 -11.42857,-2.85714 -1.36581,-0.27316 -13.2084,-0.35911 -14.28571,0 -2.02031,0.67343 -3.69398,2.18371 -5.71429,2.85714 -0.90351,0.30117 -1.95363,-0.30117 -2.85714,0 -2.02031,0.67344 -3.64828,2.34064 -5.71429,2.85714 -1.84789,0.46198 -3.90727,-0.60233 -5.71428,0 -1.27776,0.42592 -1.73648,2.11004 -2.85715,2.85715 -1.77192,1.18128 -3.80952,1.90476 -5.71428,2.85714 -1.90476,0.95238 -3.69398,2.18371 -5.71429,2.85714 -0.90351,0.30117 -2.06471,-0.52828 -2.85714,0 -3.86684,1.62551 -5.20944,6.3301 -8.57143,8.57143 -1.77192,1.18128 -3.94236,1.67586 -5.71428,2.85714 -1.12067,0.74711 -1.90477,1.90477 -2.85715,2.85715 -1.90476,1.90476 -3.80952,3.80952 -5.71428,5.71428 -0.95238,0.95238 -2.11004,1.73648 -2.85715,2.85715 -10.35797,20.71594 3.0117,-4.51754 -5.71428,8.57142 -1.18128,1.77193 -1.57939,4.01062 -2.85714,5.71429 -1.90477,1.90476 -3.80953,3.80952 -5.71429,5.71429 0,0.95238 0.42592,2.0053 0,2.85714 -4.35652,8.71303 -2.26504,-5.22556 -5.71429,8.57143 -0.46197,1.84789 0.60234,3.90727 0,5.71428 -0.42591,1.27776 -2.43122,1.57939 -2.85714,2.85715 -0.60234,1.80701 0.46197,3.86639 0,5.71428 -0.5165,2.06601 -2.34064,3.64828 -2.85714,5.71429 -0.56187,2.24747 0,14.17164 0,17.14285 0,1.90477 0,3.80953 0,5.71429 0,1.90476 -0.46197,3.86639 0,5.71429 1.033,4.132 4.13247,7.47402 5.71428,11.42857 1.11852,2.79628 1.73863,5.77514 2.85715,8.57143 1.58182,3.95454 3.52295,7.77635 5.71428,11.42857 3.53341,5.88902 8.35724,11.00018 11.42857,17.14285 1.34687,2.69374 1.30764,5.98893 2.85715,8.57143 1.38592,2.30987 3.80952,3.80953 5.71428,5.71429 1.90476,1.90476 3.5593,4.09804 5.71429,5.71428 1.70367,1.27776 4.01061,1.57939 5.71428,2.85715 2.155,1.61624 3.5593,4.09804 5.71429,5.71428 1.70367,1.27776 4.01061,1.57939 5.71429,2.85715 2.15499,1.61624 3.55929,4.09804 5.71428,5.71428 11.54699,8.66024 1.35719,0.4524 8.57143,2.85714 2.02031,0.67344 3.69398,2.18371 5.71429,2.85715 2.71052,0.9035 5.79959,-0.69296 8.57142,0 2.06601,0.5165 3.69398,2.1837 5.71429,2.85714 0.90351,0.30117 1.90476,0 2.85714,0 6.14106,0 8.8611,0.75927 14.28572,-2.85714 1.12066,-0.74711 1.73648,-2.11004 2.85714,-2.85715 1.77192,-1.18128 4.01061,-1.57939 5.71429,-2.85714 9.9976,-7.49821 2.31382,-3.08509 8.57142,-11.42857 1.61625,-2.15499 4.03152,-3.61083 5.71429,-5.71429 4.59705,-5.7463 5.6041,-8.35106 8.57143,-14.28571 0.95238,-1.90476 1.90476,-3.80952 2.85714,-5.71429 1.90476,-1.90476 4.32837,-3.40442 5.71429,-5.71428 1.5495,-2.58251 1.30764,-5.98892 2.85714,-8.57143 1.38592,-2.30986 4.32837,-3.40442 5.71429,-5.71429 1.5495,-2.5825 1.73862,-5.77514 2.85714,-8.57142 1.58182,-3.95455 4.68128,-7.29657 5.71428,-11.42858 0.46198,-1.84789 -0.46197,-3.86639 0,-5.71428 0.51651,-2.06601 2.34065,-3.64828 2.85715,-5.71429 0.69296,-2.77183 -0.90351,-5.8609 0,-8.57143 0.67343,-2.0203 2.1837,-3.69398 2.85714,-5.71428 0.30117,-0.90351 0,-1.90476 0,-2.85714 0,-1.90477 0,-3.80953 0,-5.71429 0,-5.71429 0,-11.42857 0,-17.14286 0,-1.23071 0.38658,-16.3697 0,-17.14285 -0.60234,-1.20468 -2.2548,-1.65247 -2.85714,-2.85715 -0.85184,-1.70367 0.85183,-4.01061 0,-5.71428 -0.60234,-1.20468 -2.25481,-1.65247 -2.85715,-2.85715 -0.42591,-0.85183 0.67344,-2.1837 0,-2.85714 -0.67343,-0.67343 -2.1837,0.67344 -2.85714,0 -1.90099,-1.90099 1.90099,-3.81329 0,-5.71428 -0.67343,-0.67344 -2.18371,0.67343 -2.85714,0 -0.67344,-0.67344 0.42592,-2.00531 0,-2.85715 -0.60234,-1.20467 -2.25481,-1.65246 -2.85714,-2.85714 -0.42592,-0.85184 0.67343,-2.18371 0,-2.85714 -0.67344,-0.67344 -1.90477,0 -2.85715,0 0,-0.95238 0.42592,-2.00531 0,-2.85715 -0.60234,-1.20467 -3.80952,-1.90476 -2.85714,-2.85714 0.95238,-0.95238 2.85714,4.20401 2.85714,2.85714 0,-2.12958 -1.35129,-4.20844 -2.85714,-5.71428 -1.34687,-1.34687 -4.36742,1.34687 -5.71429,0 -0.67343,-0.67344 0.67344,-2.18371 0,-2.85714 -0.67343,-0.67344 -2.1837,0.67343 -2.85714,0 -0.67343,-0.67344 0.67344,-2.18371 0,-2.85715 -0.67343,-0.67343 -2.18371,0.67344 -2.85714,0 -0.67344,-0.67343 0.42592,-2.0053 0,-2.85714 -0.60234,-1.20468 -1.90476,-1.90476 -2.85714,-2.85714" id="path2985" inkscape:connector-curvature="0" />
    <path style="fill:none;stroke:#000000;stroke-width:1px;stroke-linecap:butt;stroke-linejoin:miter;stroke-opacity:1" d="m 340,563.79075 c -0.79216,5.96168 -13.28819,11.36086 -17.14286,17.14286 -1.18128,1.77193 -1.67586,3.94236 -2.85714,5.71429 -1.49422,2.24132 -4.09804,3.55929 -5.71429,5.71428 -2.06031,2.74709 -3.65397,5.82434 -5.71428,8.57143 -1.61625,2.15499 -4.50961,3.30493 -5.71429,5.71429 -0.42591,0.85183 0.42592,2.0053 0,2.85714 -1.20467,2.40935 -4.50961,3.30493 -5.71428,5.71429 -0.42592,0.85183 0.42591,2.0053 0,2.85714 -0.60234,1.20468 -2.25481,1.65246 -2.85715,2.85714 -0.42591,0.85184 0.67344,2.18371 0,2.85714 -0.67343,0.67344 -2.1837,-0.67343 -2.85714,0 -0.67343,0.67344 0.42592,2.00531 0,2.85715 -0.60234,1.20467 -2.85714,1.51027 -2.85714,2.85714 0,0.95238 2.18371,-0.67344 2.85714,0 0.67344,0.67343 -0.67343,2.18371 0,2.85714 0.11498,0.11498 10.37933,0 11.42857,0 11.42857,0 22.85715,0 34.28572,0 2.68234,0 12.64859,0.54571 14.28571,0 1.27775,-0.42592 1.65247,-2.2548 2.85714,-2.85714 1.80249,-0.90124 12.48323,0.90124 14.28572,0 1.20468,-0.60234 1.65246,-2.2548 2.85714,-2.85714 0.85184,-0.42592 2.18371,0.67343 2.85714,0 0.67344,-0.67344 -0.95238,-2.85715 0,-2.85715 0.95239,0 0,3.80953 0,2.85715 0,-1.90477 0,-3.80953 0,-5.71429 0,-0.95238 0,-1.90476 0,-2.85714 0,-0.95238 0.42592,-2.00531 0,-2.85714 -0.60233,-1.20468 -2.2548,-1.65247 -2.85714,-2.85715 -0.42592,-0.85183 0.67344,-2.18371 0,-2.85714 -0.67343,-0.67344 -2.18371,0.67343 -2.85714,0 -1.34687,-1.34687 1.34687,-4.36742 0,-5.71429 -0.67344,-0.67343 -2.18371,0.67344 -2.85714,0 -1.34687,-1.34687 1.34687,-4.36741 0,-5.71428 -0.67344,-0.67344 -2.18371,0.67343 -2.85715,0 -1.34687,-1.34687 0.85184,-4.01062 0,-5.71429 -0.60234,-1.20467 -2.2548,-1.65246 -2.85714,-2.85714 -0.42592,-0.85184 0.67344,-2.18371 0,-2.85714 -0.67344,-0.67344 -2.18371,0.67343 -2.85714,0 -1.34687,-1.34687 1.34687,-4.36742 0,-5.71429 -0.67344,-0.67343 -2.18371,0.67344 -2.85715,0 -0.67343,-0.67343 0.6097,-2.1255 0,-2.85714 C 349.97449,572.903 344.7619,568.55266 340,563.79075 z" id="path2993" inkscape:connector-curvature="0" />
    <path style="fill:none;stroke:#000000;stroke-width:1px;stroke-linecap:butt;stroke-linejoin:miter;stroke-opacity:1" d="m 222.85714,418.07647 c -6.6575,-0.1419 -5.97416,-11.55851 -11.42857,-14.28572 -0.85183,-0.42591 -2.18371,0.67344 -2.85714,0 -0.67344,-0.67343 0.42592,-2.0053 0,-2.85714 -1.63774,-3.27548 -5.96147,-3.97431 -8.57143,-5.71428 -3.2967,-2.19781 -5.27473,-6.37363 -8.57143,-8.57143 -10.37844,-6.91897 -2.02047,0.83667 -8.57143,-5.71429 -0.95238,-0.95238 -2.2548,-1.65246 -2.85714,-2.85714 -0.42592,-0.85184 0.67344,-2.18371 0,-2.85714 -0.67344,-0.67344 -2.00531,0.42591 -2.85714,0 -1.20468,-0.60234 -1.51028,-2.85715 -2.85715,-2.85715 -0.95238,0 0,1.90476 0,2.85715 0,0.95238 0,1.90476 0,2.85714 0,3.80952 0,7.61905 0,11.42857 0,10.47619 0,20.95238 0,31.42857 0,10.47619 0,20.95238 0,31.42857 0,1.49406 -0.37563,10.67731 0,11.42857 0.60234,1.20468 2.25481,1.65247 2.85715,2.85715 0.42591,0.85183 0,1.90476 0,2.85714 0,0.95238 0,1.90476 0,2.85714 0,0.69294 -0.0919,8.47955 0,8.57143 0.67343,0.67344 1.90476,0 2.85714,0 5.71429,0 0.95238,0.95238 2.85714,-2.85714 0.60234,-1.20468 2.25481,-1.65247 2.85715,-2.85714 0.42591,-0.85184 -0.67344,-2.18371 0,-2.85715 0.67343,-0.67343 2.1837,0.67344 2.85714,0 0.67343,-0.67343 -0.42592,-2.0053 0,-2.85714 1.20468,-2.40935 4.50961,-3.30493 5.71428,-5.71429 0.42592,-0.85183 -0.67343,-2.1837 0,-2.85714 0.67344,-0.67343 2.18371,0.67344 2.85715,0 1.34687,-1.34687 -0.85184,-4.01061 0,-5.71428 0.60234,-1.20468 2.2548,-1.65247 2.85714,-2.85715 0.85184,-1.70367 -1.34687,-4.36741 0,-5.71428 0.67344,-0.67344 2.18371,0.67343 2.85714,0 0.58411,-0.58411 -0.56641,-7.4386 0,-8.57143 0.60234,-1.20468 2.25481,-1.65247 2.85715,-2.85714 0.42591,-0.85184 -0.42592,-2.00531 0,-2.85715 0.60233,-1.20467 2.2548,-1.65246 2.85714,-2.85714 0.85183,-1.70367 -1.63332,-4.73429 0,-5.71429 4.39785,-2.6387 12.38095,-10.47619 14.28571,-5.71428 1.90476,4.7619 -12.38095,10.47619 -14.28571,5.71428 -1.90476,-4.7619 9.52381,-3.80952 14.28571,-5.71428 z" id="path2995" inkscape:connector-curvature="0" />
    <path style="fill:none;stroke:#000000;stroke-width:1px;stroke-linecap:butt;stroke-linejoin:miter;stroke-opacity:1" d="m 437.14286,438.07647 c 3.80952,-1.90476 9.52381,-9.52381 11.42857,-5.71429 1.90476,3.80953 -14.44027,8.72598 -11.42857,5.71429 3.92676,-3.92677 9.6651,-5.49102 14.28571,-8.57143 1.12067,-0.74711 1.65247,-2.2548 2.85714,-2.85714 1.70368,-0.85184 4.36742,1.34687 5.71429,0 0,-7.61905 -0.95238,0.95238 2.85714,-2.85715 0.67344,-0.67343 -0.67343,-2.1837 0,-2.85714 5.91153,-5.91153 -0.23108,9.0336 5.71429,-2.85714 0.42592,-0.85184 -0.67344,-2.18371 0,-2.85714 1.34687,-1.34687 4.36741,1.34687 5.71428,0 0.67344,-0.67344 -0.67343,-2.18371 0,-2.85715 0.67344,-0.67343 2.00531,0.42592 2.85715,0 2.40935,-1.20467 3.30493,-4.50961 5.71428,-5.71428 0.85184,-0.42592 2.18371,0.67343 2.85715,0 0.67343,-0.67344 -0.67344,-2.18371 0,-2.85715 0.67343,-0.67343 2.1837,0.67344 2.85714,0 0.67343,-0.67343 -0.67344,-2.1837 0,-2.85714 0.67343,-0.67343 2.18371,0.67344 2.85714,0 0.67344,-0.67343 0,-1.90476 0,-2.85714 0.95238,0 2.00531,0.42592 2.85714,0 1.20468,-0.60234 1.51028,-2.85714 2.85715,-2.85714 0.95238,0 0,1.90476 0,2.85714 0,0.95238 0,1.90476 0,2.85714 0,0.95238 0.42591,2.00531 0,2.85714 -0.60234,1.20468 -2.25481,1.65247 -2.85715,2.85715 -0.37563,0.75126 0,9.93451 0,11.42857 0,6.66666 0,13.33333 0,20 0,1.28673 0.43477,7.7019 0,8.57143 -0.60233,1.20467 -2.2548,1.65246 -2.85714,2.85714 -0.89789,1.79578 0.89789,9.63279 0,11.42857 -0.60234,1.20468 -2.2548,1.65247 -2.85714,2.85714 -0.42592,0.85184 0,1.90477 0,2.85715 0,0.95238 0,1.90476 0,2.85714 0,5.71429 0,11.42857 0,17.14286 0,1.28673 0.43476,7.7019 0,8.57143 -0.60234,1.20467 -2.25481,1.65246 -2.85714,2.85714 -0.42592,0.85183 0,1.90476 0,2.85714 0,0.95238 0,1.90476 0,2.85714 0,2.03141 1.20013,8.57143 -2.85715,8.57143 -5.94537,0 -1.14962,-4.00677 -2.85714,-5.71428 -5.91153,-5.91153 0.23109,9.0336 -5.71429,-2.85715 -0.85183,-1.70367 0.85184,-4.01061 0,-5.71428 -0.60233,-1.20468 -2.2548,-1.65247 -2.85714,-2.85714 -0.42592,-0.85184 0.67344,-2.18371 0,-2.85715 -0.67343,-0.67343 -2.18371,0.67344 -2.85714,0 -0.67344,-0.67343 0.42592,-2.0053 0,-2.85714 -0.60234,-1.20468 -2.25481,-1.65247 -2.85714,-2.85714 -0.42592,-0.85184 0.42591,-2.00531 0,-2.85715 -0.60234,-1.20467 -2.25481,-1.65246 -2.85715,-2.85714 -0.85183,-1.70367 1.34687,-4.36741 0,-5.71428 -0.67343,-0.67344 -2.1837,0.67343 -2.85714,0 -1.34687,-1.34687 1.34687,-4.36742 0,-5.71429 -0.67344,-0.67344 -2.18371,0.67343 -2.85714,0 -1.34687,-1.34687 1.34687,-4.36742 0,-5.71429 -0.67344,-0.67343 -2.18371,0.67344 -2.85715,0 -0.67343,-0.67343 0.42592,-2.0053 0,-2.85714 -0.60233,-1.20468 -2.2548,-1.65246 -2.85714,-2.85714 -0.42592,-0.85184 0.42592,-2.00531 0,-2.85714 -0.60234,-1.20468 -1.9949,-1.82245 -2.85714,-2.85715 -3.90398,-4.68477 -7.61905,-9.52381 -11.42857,-14.28571 z" id="path2997" inkscape:connector-curvature="0" />
    <path style="fill:none;stroke:#000000;stroke-width:1px;stroke-linecap:butt;stroke-linejoin:miter;stroke-opacity:1" d="m 317.14286,298.07647 c 1.90476,3.80952 9.52381,9.52381 5.71428,11.42857 -3.80952,1.90476 -8.72598,-14.44026 -5.71428,-11.42857 3.92676,3.92677 5.10231,9.94932 8.57143,14.28571 0.59494,0.74369 2.1837,-0.67343 2.85714,0 0.67343,0.67344 -0.42592,2.00531 0,2.85715 0.60234,1.20467 2.2548,1.65246 2.85714,2.85714 0.42592,0.85183 -0.42592,2.00531 0,2.85714 0.60234,1.20468 2.25481,1.65247 2.85714,2.85714 0.42592,0.85184 -0.67343,2.18371 0,2.85715 0.67344,0.67343 2.85715,-0.95238 2.85715,0 0,0.95238 -3.53058,0.67343 -2.85715,0 1.50585,-1.50585 4.20844,-1.3513 5.71429,-2.85715 0.67344,-0.67343 -0.67344,-2.1837 0,-2.85714 0.67344,-0.67343 2.18371,0.67344 2.85714,0 1.34687,-1.34687 -1.34687,-4.36741 0,-5.71428 0.67344,-0.67344 2.18371,0.67343 2.85715,0 1.34687,-1.34687 -0.85184,-4.01062 0,-5.71429 0.60233,-1.20468 2.2548,-1.65247 2.85714,-2.85714 0.42592,-0.85184 -0.42592,-2.00531 0,-2.85715 1.20468,-2.40935 4.50961,-3.30493 5.71428,-5.71428 0.42592,-0.85184 -0.42591,-2.00531 0,-2.85714 1.20468,-2.40936 4.50961,-3.30494 5.71429,-5.71429 0.42592,-0.85184 -0.30117,-1.95364 0,-2.85714 3.45266,-10.35798 1.35561,-2.03342 5.71429,-8.57143 6.29475,-1.43884 1.51027,-5.87769 2.85714,-8.57143 0.60234,-1.20468 2.2548,-1.65247 2.85714,-2.85714 0.42592,-0.85184 -0.42592,-2.00531 0,-2.85715 0.60234,-1.20467 2.25481,-1.65246 2.85714,-2.85714 0.42592,-0.85183 -0.67343,-2.18371 0,-2.85714 0.67344,-0.67344 2.18371,0.67343 2.85715,0 0.67343,-0.67344 0,-1.90476 0,-2.85714 0,-0.95239 0.67343,-2.18371 0,-2.85715 -2.23351,-2.2335 -4.97043,2.48522 -5.71429,2.85715 -0.85183,0.42591 -1.90476,0 -2.85714,0 -0.95238,0 -1.90476,0 -2.85714,0 -0.95239,0 -2.00531,-0.42592 -2.85715,0 -1.20467,0.60233 -1.65246,2.2548 -2.85714,2.85714 -1.70367,0.85183 -4.01061,-0.85184 -5.71429,0 -1.20467,0.60234 -1.65246,2.2548 -2.85714,2.85714 -1.70367,0.85184 -4.01061,-0.85183 -5.71428,0 -1.20468,0.60234 -1.65247,2.25481 -2.85715,2.85714 -1.70367,0.85184 -4.01061,-0.85183 -5.71428,0 -1.20468,0.60234 -1.65247,2.25481 -2.85715,2.85715 -1.70367,0.85183 -4.01061,-0.85184 -5.71428,0 -1.20468,0.60234 -1.65247,2.2548 -2.85714,2.85714 -1.54997,0.77498 -10.6468,-0.78178 -11.42858,0 -0.0919,0.0919 0,7.87849 0,8.57143 0,7.59098 1.04112,10.91986 2.85715,20 z" id="path2999" inkscape:connector-curvature="0" />
    <text xml:space="preserve" style="font-size:18.2681675px;font-style:normal;font-variant:normal;font-weight:normal;font-stretch:normal;line-height:125%;letter-spacing:0px;word-spacing:0px;fill:#000000;fill-opacity:1;stroke:none;font-family:Arial;-inkscape-font-specification:Arial" x="285.33398" y="426.69751" id="text2995" sodipodi:linespacing="125%" transform="scale(0.91438853,1.093627)"><tspan sodipodi:role="line" id="tspan2997" x="285.33398" y="426.69751" style="font-size:73.07266998px;font-weight:bold;-inkscape-font-specification:Arial Bold">EXIT</tspan></text>
  </g>
</svg>
