<?xml version="1.0" encoding="UTF-8" standalone="no"?>
<!-- Created with Inkscape (http://www.inkscape.org/) -->

<svg xmlns:dc="http://purl.org/dc/elements/1.1/" xmlns:cc="http://creativecommons.org/ns#" xmlns:rdf="http://www.w3.org/1999/02/22-rdf-syntax-ns#" xmlns:svg="http://www.w3.org/2000/svg" xmlns="http://www.w3.org/2000/svg" xmlns:sodipodi="http://sodipodi.sourceforge.net/DTD/sodipodi-0.dtd" xmlns:inkscape="http://www.inkscape.org/namespaces/inkscape" inkscape:version="0.48+devel r12701 custom" version="1.1" id="svg2" height="0" width="100%" sodipodi:docname="map0.svg">
 <sodipodi:namedview id="base" pagecolor="#ffffff" bordercolor="#666666" borderopacity="1.0" inkscape:pageopacity="0.0" inkscape:pageshadow="2" inkscape:zoom="3.5597913" inkscape:cx="43.394148" inkscape:cy="71.373868" inkscape:document-units="px" inkscape:current-layer="layer7" showgrid="true" inkscape:snap-global="false" showguides="true" inkscape:guide-bbox="true" borderlayer="false" inkscape:window-width="1680" inkscape:window-height="1037" inkscape:window-x="0" inkscape:window-y="0" inkscape:window-maximized="1" showborder="false" inkscape:showpageshadow="true">
  <inkscape:grid empopacity="0.25098039" empcolor="#00007c" dotted="false" snapvisiblegridlinesonly="true" enabled="true" visible="true" empspacing="5" id="grid3002" type="xygrid" />
 </sodipodi:namedview>
 <defs id="defs4">
  <marker inkscape:stockid="Arrow1Mend" orient="auto" refY="0.0" refX="0.0" id="Arrow1Mend" style="overflow:visible;" inkscape:isstock="true">
   <path id="path4237" d="M 0.0,0.0 L 5.0,-5.0 L -12.5,0.0 L 5.0,5.0 L 0.0,0.0 z " style="fill-rule:evenodd;stroke:#000000;stroke-width:1pt;stroke-opacity:1;fill:#000000;fill-opacity:1" transform="scale(0.4) rotate(180) translate(10,0)" />
  </marker>
  <marker inkscape:stockid="Arrow2Lend" orient="auto" refY="0.0" refX="0.0" id="marker4567" style="overflow:visible;" inkscape:isstock="true">
   <path id="path4569" style="fill-rule:evenodd;stroke-width:0.625;stroke-linejoin:round;stroke:#000000;stroke-opacity:1;fill:#000000;fill-opacity:1" d="M 8.7185878,4.0337352 L -2.2072895,0.016013256 L 8.7185884,-4.0017078 C 6.9730900,-1.6296469 6.9831476,1.6157441 8.7185878,4.0337352 z " transform="scale(1.1) rotate(180) translate(1,0)" />
  </marker>
  <marker inkscape:stockid="Arrow2Lend" orient="auto" refY="0.0" refX="0.0" id="Arrow2Lend" style="overflow:visible;" inkscape:isstock="true">
   <path id="path4249" style="fill-rule:evenodd;stroke-width:0.625;stroke-linejoin:round;stroke:#000000;stroke-opacity:1;fill:#000000;fill-opacity:1" d="M 8.7185878,4.0337352 L -2.2072895,0.016013256 L 8.7185884,-4.0017078 C 6.9730900,-1.6296469 6.9831476,1.6157441 8.7185878,4.0337352 z " transform="scale(1.1) rotate(180) translate(1,0)" />
  </marker>
  <marker style="overflow:visible" id="DotM" refX="0" refY="0" orient="auto" inkscape:stockid="DotM">
   <path inkscape:connector-curvature="0" transform="matrix(0.4,0,0,0.4,2.96,0.4)" style="fill-rule:evenodd;stroke:#000000;stroke-width:1pt" d="m -2.5,-1 c 0,2.76 -2.24,5 -5,5 -2.76,0 -5,-2.24 -5,-5 0,-2.76 2.24,-5 5,-5 2.76,0 5,2.24 5,5 z" id="path3847" />
  </marker>
  <marker style="overflow:visible" id="Arrow1Lend" refX="0" refY="0" orient="auto" inkscape:stockid="Arrow1Lend">
   <path inkscape:connector-curvature="0" transform="matrix(-0.8,0,0,-0.8,-10,0)" style="fill-rule:evenodd;stroke:#000000;stroke-width:1pt" d="M 0,0 5,-5 -12.5,0 5,5 0,0 z" id="path3786" />
  </marker>
  <marker inkscape:stockid="DistanceEnd" orient="auto" refY="0" refX="0" id="DistanceEnd" style="overflow:visible">
   <g id="g2301">
    <path inkscape:connector-curvature="0" id="path2316" d="M 0,0 -2,0" style="fill:none;stroke:#ffffff;stroke-width:1.14999998;stroke-linecap:square" />
    <path inkscape:connector-curvature="0" id="path2312" d="M 0,0 -13,4 -9,0 -13,-4 0,0 z" style="fill:#000000;fill-rule:evenodd;stroke:none" />
    <path inkscape:connector-curvature="0" id="path2314" d="M 0,-4 0,40" style="fill:none;stroke:#000000;stroke-width:1;stroke-linecap:square" />
   </g>
  </marker>
  <marker style="overflow:visible" id="DotM-1" refX="0" refY="0" orient="auto" inkscape:stockid="DotM">
   <path inkscape:connector-curvature="0" transform="matrix(0.4,0,0,0.4,2.96,0.4)" style="fill-rule:evenodd;stroke:#000000;stroke-width:1pt" d="m -2.5,-1 c 0,2.76 -2.24,5 -5,5 -2.76,0 -5,-2.24 -5,-5 0,-2.76 2.24,-5 5,-5 2.76,0 5,2.24 5,5 z" id="path3847-6" />
  </marker>
  <marker style="overflow:visible" id="marker4460" refX="0" refY="0" orient="auto" inkscape:stockid="DotM">
   <path inkscape:connector-curvature="0" transform="matrix(0.4,0,0,0.4,2.96,0.4)" style="fill-rule:evenodd;stroke:#000000;stroke-width:1pt" d="m -2.5,-1 c 0,2.76 -2.24,5 -5,5 -2.76,0 -5,-2.24 -5,-5 0,-2.76 2.24,-5 5,-5 2.76,0 5,2.24 5,5 z" id="path4462" />
  </marker>
  <marker style="overflow:visible" id="Arrow1Lend-9" refX="0" refY="0" orient="auto" inkscape:stockid="Arrow1Lend">
   <path inkscape:connector-curvature="0" transform="matrix(-0.8,0,0,-0.8,-10,0)" style="fill-rule:evenodd;stroke:#000000;stroke-width:1pt" d="M 0,0 5,-5 -12.5,0 5,5 0,0 Z" id="path3786-8" />
  </marker>
  <marker style="overflow:visible" id="DotM-1-9" refX="0" refY="0" orient="auto" inkscape:stockid="DotM">
   <path inkscape:connector-curvature="0" transform="matrix(0.4,0,0,0.4,2.96,0.4)" style="fill-rule:evenodd;stroke:#000000;stroke-width:1pt" d="m -2.5,-1 c 0,2.76 -2.24,5 -5,5 -2.76,0 -5,-2.24 -5,-5 0,-2.76 2.24,-5 5,-5 2.76,0 5,2.24 5,5 z" id="path3847-6-3" />
  </marker>
  <marker style="overflow:visible" id="marker3318" refX="0" refY="0" orient="auto" inkscape:stockid="DotM">
   <path inkscape:connector-curvature="0" transform="matrix(0.4,0,0,0.4,2.96,0.4)" style="fill-rule:evenodd;stroke:#000000;stroke-width:1pt" d="m -2.5,-1 c 0,2.76 -2.24,5 -5,5 -2.76,0 -5,-2.24 -5,-5 0,-2.76 2.24,-5 5,-5 2.76,0 5,2.24 5,5 z" id="path3320" />
  </marker>
  <marker style="overflow:visible" id="Arrow1Lend-9-0" refX="0" refY="0" orient="auto" inkscape:stockid="Arrow1Lend">
   <path inkscape:connector-curvature="0" transform="matrix(-0.8,0,0,-0.8,-10,0)" style="fill-rule:evenodd;stroke:#000000;stroke-width:1pt" d="M 0,0 5,-5 -12.5,0 5,5 0,0 Z" id="path3786-8-1" />
  </marker>
 </defs>
 <metadata id="metadata7">
  <rdf:RDF>
   <cc:Work rdf:about="">
    <dc:format>image/svg+xml</dc:format>
    <dc:type rdf:resource="http://purl.org/dc/dcmitype/StillImage" />
    <dc:title />
   </cc:Work>
  </rdf:RDF>
 </metadata>
 <g inkscape:groupmode="layer" id="layer6" inkscape:label="cube_generator" class="cube_generator" style="fill:#800080;display:inline">
  <rect style="fill:#ffaaaa;fill-opacity:1;fill-rule:nonzero;stroke:none" id="rect4573" width="25" height="20" x="45" y="-111" />
  <rect style="fill:#ffaaaa;fill-opacity:1;fill-rule:nonzero;stroke:none" id="rect4575" width="55" height="35" x="30" y="-61" />
 </g>
 <g inkscape:groupmode="layer" id="layer3" inkscape:label="static_wall" class="static_wall" style="display:inline">
  <rect transform="translate(0,-1049.8088)" style="fill:#666666;fill-opacity:1;fill-rule:nonzero;stroke:none" id="rect4446" width="5" height="130" x="0.10294092" y="918.79919" />
  <rect transform="translate(0,-1049.8088)" y="918.79919" x="195.28537" height="130" width="5" id="rect4448" style="fill:#666666;fill-opacity:1;fill-rule:nonzero;stroke:none" />
  <rect transform="translate(0,-1049.8088)" style="fill:#666666;fill-opacity:1;fill-rule:nonzero;stroke:none" id="rect4533" width="200" height="5" x="0" y="913.80878" />
  <rect transform="translate(0,-1049.8088)" style="fill:#666666;fill-opacity:1;fill-rule:nonzero;stroke:none" id="rect4535" width="200" height="5" x="0" y="1048.8088" />
  <rect transform="translate(0,-1049.8088)" style="fill:#666666;fill-opacity:1;fill-rule:nonzero;stroke:none" id="rect4540" width="1" height="30.000023" x="15" y="948.80878" />
  <rect transform="translate(0,-1049.8088)" y="948.80878" x="29.888514" height="30.000023" width="1" id="rect4542" style="fill:#666666;fill-opacity:1;fill-rule:nonzero;stroke:none" />
  <rect transform="translate(0,-1049.8088)" style="fill:#666666;fill-opacity:1;fill-rule:nonzero;stroke:none" id="rect4544" width="1" height="30.000023" x="114.72495" y="984.76593" />
 </g>
 <g inkscape:groupmode="layer" id="layer4" inkscape:label="gate_in" class="gate_in" style="display:inline">
  <circle style="fill:#00ffff;fill-opacity:1;fill-rule:nonzero;stroke:none" id="path4555" cx="15" cy="-121" r="4" />
 </g>
 <g inkscape:groupmode="layer" id="layer5" inkscape:label="gate_out" class="gate_out" style="display:inline">
  <circle style="fill:#00ff00;fill-opacity:1;fill-rule:nonzero;stroke:none" id="path4562" cx="100" cy="-121" r="5" />
 </g>
 <g class="ignore" transform="translate(0,-1052.3622)" inkscape:label="tool" id="layer2" inkscape:groupmode="layer" style="display:inline">
  <g transform="matrix(0.0495281,0,0,0.05023611,-14.999453,1035.0928)" class="vdrone" id="g5146" style="stroke:none">
   <path style="fill:#611e8b;fill-opacity:1;stroke:none" d="m -80,424.09448 c -20,60 -20,60 -20,60 l 40,0 0,0 z" id="path5119" inkscape:connector-curvature="0" />
  </g>
 </g>
 <g inkscape:groupmode="layer" id="layer7" inkscape:label="mobile_wallS">
  <g id="g5564" class="mobile_wall">
   <rect y="-111" x="85" height="2.1908464" width="29.719084" id="rect3349" style="fill:#ff0000;fill-opacity:1;fill-rule:nonzero;stroke:none" />
   <path inkscape:connector-curvature="0" id="path3359" d="m 100.28678,-108.87149 -5.056478,17.416749" style="fill:none;stroke:#000000;stroke-width:0.5;stroke-linecap:butt;stroke-linejoin:miter;stroke-miterlimit:0.2;stroke-opacity:1;stroke-dasharray:none;marker-end:url(#Arrow1Mend)" x-duration="2000" />
  </g>
 </g>
</svg>
